# xmcd
#
# Track frame offsets:
#	150
#	12634
#	24044
#	37510
#	51186
#	60671
#	72136
#	84213
#	95016
#	109714
#	120064
#	128593
#	140302
#	151070
#	163561
#	174895
#	186933
#	198223
#	210653
#	222794
#	235911
#	246165
#	256956
#	268380
#	280590
#	292906
#	306025
#	317688
#	329134
#	343098
#	357429
#	367291
#
# Disc length: 5068 seconds
#
# Revision: 4
# Processed by: cddbd v1.5.2PL0 Copyright (c) Steve Scherf et al.
# Submitted via: audiograbber 1.83.01
#
DISCID=c913ca20
DTITLE=George Jones - A Good Year For The Roses (The Complete MusicorRecordings
DTITLE=1965-71 -- Part 2) - Disc 2 of 4
DYEAR=1969
DGENRE=Country
TTITLE0=George Jones - Just An Average Couple  with Brenda Carter
TTITLE1=Gerorge Jones - I'll See You While Ago
TTITLE2=Gerorge Jones - She's Mine (1968)
TTITLE3=Gerorge Jones - If Not For You (1968)
TTITLE4=George Jones - The Race Is On (1968)  with Tammy Wynette
TTITLE5=George Jones - I'll Share My World With You (1968)  with Tammy Wynette
TTITLE6=George Jones  - The Hardest Part Of All with Tammy Wynette
TTITLE7=George Jones with Tammy Wynette - How Much Rain with Tammy Wynette
TTITLE8=George Jones - Where Grass Won't Grow (recorded 1968
TTITLE9=George Jones - Old Blue Tomorrow
TTITLE10=George Jones - Shoulder To Shoulder (1969)
TTITLE11=George Jones - The Fortune I've Gone Through (1969)
TTITLE12=George Jones - For Better Or For Worse (But Not For Long) (1969)
TTITLE13=George Jones - She's As Close As I Can Get (1969)
TTITLE14=George Jones - No Blues Is Good News (1969)
TTITLE15=George Jones - I Know (recorded 1969
TTITLE16=George Jones - Among The Few (recorded 1969
TTITLE17=George Jones - Papa's Wagon (recorded 1969
TTITLE18=George Jones with Tammy Wynette - Never Grow Old (recorded 1969 - rele
TTITLE18=ased 1970)
TTITLE19=George Jones - Mama Take Me Home (recorded 1969
TTITLE20=George Jones - Playing Possum (recorded 1969
TTITLE21=George Jones - I Just Got Tired Of Being Poor (recorded 1969
TTITLE22=George Jones - You Can Always Come Back (recorded 1969
TTITLE23=George Jones - Going Life's Way (recorded 1969
TTITLE24=George Jones - Okie From Muskogee  (recorded 1969
TTITLE25=Image Of Me (recorded 1969 - released 1970)
TTITLE26=George Jones - Love Me  (recorded 1969
TTITLE27=George Jones - I Stayed Long Enough (recorded 1969
TTITLE28=George Jones - All I Have To Offer You Is Me (recorded 1969
TTITLE29=George Jones - Mama's Hungry Eyes (recorded 1969
TTITLE30=George Jones - Each Season Changes  with Tammy Wynette
TTITLE31=George Jones - Will You Visit Me On Sunday (recorded 1969
EXTD=
EXTT0=
EXTT1=
EXTT2=
EXTT3=
EXTT4=
EXTT5=
EXTT6=
EXTT7=
EXTT8=
EXTT9=
EXTT10=
EXTT11=
EXTT12=
EXTT13=
EXTT14=
EXTT15=
EXTT16=
EXTT17=
EXTT18=
EXTT19=
EXTT20=
EXTT21=
EXTT22=
EXTT23=
EXTT24=
EXTT25=
EXTT26=
EXTT27=
EXTT28=
EXTT29=
EXTT30=
EXTT31=
PLAYORDER=
